<svg width="110" height="22" viewBox="0 0 110 22" fill="none" xmlns="http://www.w3.org/2000/svg">
<g clip-path="url(#clip0_15558_62209)">
<path d="M14.2198 0.487539L12.7074 4.34011L14.177 7.44039L15.7791 3.44026H19.2742V17.0841C19.2735 17.6048 19.0692 18.1039 18.7063 18.4719C18.3435 18.84 17.8515 19.0469 17.3385 19.0473C16.9294 19.0473 16.2239 18.8158 15.9445 18.2516L13.8064 13.4775L13.7921 13.5006L10.2629 5.65516L10.2743 5.64069L8.79327 2.34655C7.95799 0.636549 6.24894 0 4.84635 0C3.56102 0 2.32833 0.518228 1.41946 1.44068C0.510596 2.36313 0 3.61424 0 4.91879L0.0484635 21.5096H7.38641L9.28361 17.3431L7.81688 14.2413L5.82132 18.5568H2.90923V4.91879C2.90923 4.39735 3.11332 3.89728 3.4766 3.52857C3.83988 3.15986 4.33259 2.95272 4.84635 2.95272C5.10435 2.95272 5.97526 3.01203 6.29455 3.86993L7.93661 7.53298L8.47969 8.75544L11.9947 16.5995C12.6076 17.9406 13.289 19.4234 13.5883 20.0614C14.197 21.3533 15.7806 22 17.3385 22C17.975 22 18.6052 21.8728 19.1931 21.6256C19.7811 21.3784 20.3154 21.0161 20.7654 20.5593C21.2154 20.1026 21.5724 19.5603 21.816 18.9636C22.0595 18.3668 22.1849 17.7272 22.1849 17.0812V0.487539H14.2198Z" fill="#FC5E02"/>
<path d="M27.2275 18.6323V3.90805C27.2231 3.87522 27.2263 3.8418 27.2369 3.81041C27.2476 3.77902 27.2653 3.7505 27.2889 3.72708C27.3124 3.70365 27.341 3.68595 27.3726 3.67536C27.4041 3.66477 27.4376 3.66156 27.4706 3.666H30.4147C30.4741 3.66354 30.5329 3.67888 30.5834 3.71004C30.634 3.74121 30.674 3.78676 30.6983 3.84081L37.0455 14.289H37.1535V3.90805C37.1491 3.87522 37.1523 3.8418 37.1629 3.81041C37.1736 3.77902 37.1914 3.7505 37.2149 3.72708C37.2384 3.70365 37.2671 3.68595 37.2986 3.67536C37.3301 3.66477 37.3637 3.66156 37.3966 3.666H39.841C39.874 3.66156 39.9075 3.66477 39.9391 3.67536C39.9706 3.68595 39.9992 3.70365 40.0227 3.72708C40.0463 3.7505 40.0641 3.77902 40.0747 3.81041C40.0853 3.8418 40.0885 3.87522 40.0841 3.90805V18.6995C40.0885 18.7324 40.0853 18.7658 40.0747 18.7972C40.0641 18.8286 40.0463 18.8571 40.0227 18.8805C39.9992 18.9039 39.9706 18.9216 39.9391 18.9322C39.9075 18.9428 39.874 18.946 39.841 18.9416H36.897C36.8412 18.9265 36.7911 18.8956 36.7527 18.8526C36.7143 18.8096 36.6894 18.7564 36.6809 18.6995L30.2391 8.21103H30.1581V18.6323C30.1625 18.6651 30.1593 18.6985 30.1487 18.7299C30.138 18.7613 30.1203 18.7898 30.0967 18.8133C30.0732 18.8367 30.0446 18.8544 30.013 18.865C29.9815 18.8756 29.948 18.8788 29.915 18.8743H27.4706C27.4376 18.8788 27.4041 18.8756 27.3726 18.865C27.341 18.8544 27.3124 18.8367 27.2889 18.8133C27.2653 18.7898 27.2476 18.7613 27.2369 18.7299C27.2263 18.6985 27.2231 18.6651 27.2275 18.6323V18.6323Z" fill="#291E30"/>
<path d="M42.2714 13.3304C42.2162 12.5565 42.3297 11.7798 42.6043 11.0536C42.8789 10.3275 43.3081 9.66909 43.8623 9.12363C44.4165 8.57818 45.0827 8.15857 45.8151 7.89362C46.5475 7.62866 47.3289 7.52463 48.1055 7.58866C51.4817 7.58866 53.5074 9.74014 53.5074 13.2901V13.8952C53.5074 13.9594 53.4818 14.021 53.4362 14.0664C53.3906 14.1118 53.3288 14.1373 53.2643 14.1373H45.3505C45.3383 14.5018 45.4031 14.8648 45.5405 15.2029C45.678 15.5409 45.8851 15.8465 46.1485 16.1C46.412 16.3534 46.7258 16.549 47.0699 16.6742C47.4139 16.7993 47.7805 16.8513 48.146 16.8266C48.6356 16.8948 49.1342 16.7999 49.5641 16.5567C49.994 16.3135 50.331 15.9357 50.5228 15.4819C50.5328 15.42 50.5666 15.3644 50.617 15.3268C50.6674 15.2892 50.7304 15.2725 50.7929 15.2802H53.2373C53.4129 15.2802 53.4939 15.2802 53.4669 15.455C53.0752 17.5796 51.1846 18.9915 48.065 18.9915C47.2988 19.0482 46.5294 18.9414 45.808 18.6785C45.0866 18.4155 44.4298 18.0023 43.8815 17.4665C43.3331 16.9308 42.9059 16.2847 42.6283 15.5715C42.3506 14.8582 42.229 14.0942 42.2714 13.3304V13.3304ZM50.6174 12.3488C50.6403 12.0143 50.5924 11.6787 50.4767 11.3638C50.361 11.0489 50.1802 10.7617 49.9459 10.5208C49.7116 10.2799 49.4292 10.0907 49.1168 9.96553C48.8044 9.84031 48.469 9.78185 48.1325 9.79393C47.7778 9.76408 47.4208 9.80804 47.0841 9.923C46.7474 10.038 46.4384 10.2214 46.1768 10.4617C45.9151 10.702 45.7065 10.9939 45.5643 11.3187C45.422 11.6436 45.3492 11.9944 45.3505 12.3488H50.6174Z" fill="#291E30"/>
<path d="M56.7897 15.524V9.91665H54.9665C54.9353 9.92116 54.9035 9.91836 54.8736 9.90847C54.8437 9.89857 54.8165 9.88186 54.7942 9.85967C54.7719 9.83747 54.7551 9.8104 54.7452 9.7806C54.7352 9.75081 54.7324 9.71912 54.737 9.68805V7.99376C54.737 7.83239 54.818 7.75171 54.9665 7.75171H56.7897V4.71273C56.7878 4.6816 56.7924 4.65042 56.8031 4.62112C56.8138 4.59181 56.8305 4.565 56.852 4.54233C56.8735 4.51965 56.8994 4.5016 56.9282 4.48928C56.957 4.47696 56.988 4.47064 57.0193 4.47069H59.5582C59.5911 4.46625 59.6247 4.46945 59.6562 4.48005C59.6878 4.49064 59.7164 4.50834 59.7399 4.53177C59.7634 4.55519 59.7812 4.58371 59.7919 4.6151C59.8025 4.64649 59.8057 4.6799 59.8013 4.71273V7.69793H62.3402C62.3731 7.69349 62.4067 7.69669 62.4382 7.70728C62.4697 7.71787 62.4984 7.73557 62.5219 7.759C62.5454 7.78243 62.5632 7.81095 62.5738 7.84234C62.5845 7.87373 62.5877 7.90714 62.5832 7.93997V9.68805C62.5855 9.71983 62.5807 9.7517 62.569 9.78138C62.5574 9.81106 62.5393 9.8378 62.5161 9.85967C62.4928 9.88154 62.465 9.898 62.4345 9.90785C62.4041 9.91771 62.3719 9.92071 62.3402 9.91665H59.8013V16.6401H62.3402C62.3719 16.636 62.4041 16.639 62.4345 16.6489C62.465 16.6587 62.4928 16.6752 62.5161 16.697C62.5393 16.7189 62.5574 16.7456 62.569 16.7753C62.5807 16.805 62.5855 16.8369 62.5832 16.8686V18.5629C62.5877 18.5958 62.5845 18.6292 62.5738 18.6606C62.5632 18.692 62.5454 18.7205 62.5219 18.7439C62.4984 18.7673 62.4697 18.785 62.4382 18.7956C62.4067 18.8062 62.3731 18.8094 62.3402 18.805H60.1389C59.691 18.8576 59.237 18.8094 58.8103 18.664C58.3836 18.5185 57.9952 18.2795 57.6737 17.9646C57.3522 17.6496 57.1059 17.2668 56.9529 16.8444C56.7999 16.422 56.7441 15.9707 56.7897 15.524V15.524Z" fill="#291E30"/>
<path d="M63.8528 13.3317C63.8091 12.5617 63.9301 11.7911 64.2079 11.0711C64.4857 10.3512 64.9139 9.69813 65.4641 9.1553C66.0144 8.61247 66.6742 8.19221 67.3999 7.92235C68.1255 7.65249 68.9005 7.53918 69.6734 7.58993C72.6174 7.58993 74.6026 9.13631 74.9403 11.624C74.9443 11.6573 74.9409 11.6912 74.9303 11.7231C74.9197 11.755 74.9022 11.7842 74.879 11.8086C74.8558 11.833 74.8275 11.852 74.796 11.8642C74.7646 11.8765 74.7309 11.8817 74.6972 11.8795H72.2528C72.1043 11.8795 72.0367 11.7988 71.9962 11.6374C71.9613 11.3688 71.8734 11.1097 71.7376 10.8749C71.6019 10.6402 71.4209 10.4345 71.2051 10.2695C70.9892 10.1046 70.7428 9.98377 70.48 9.91391C70.2172 9.84405 69.943 9.82655 69.6734 9.86244C67.9043 9.86244 66.9049 11.2071 66.9049 13.3586C66.9049 15.5101 67.9313 16.8144 69.6734 16.8144C70.231 16.8922 70.797 16.7502 71.251 16.4187C71.705 16.0872 72.0112 15.5923 72.1043 15.0395C72.1042 15.0065 72.1109 14.9739 72.124 14.9436C72.137 14.9133 72.1561 14.886 72.1802 14.8634C72.2042 14.8407 72.2326 14.8232 72.2637 14.8118C72.2947 14.8005 72.3278 14.7956 72.3608 14.7974H74.8052C74.9538 14.7974 75.0618 14.8781 75.0483 15.0126C74.6702 17.4868 72.712 19.0466 69.6464 19.0466C68.8754 19.1041 68.1011 18.9961 67.3757 18.7299C66.6502 18.4638 65.9906 18.0457 65.4414 17.504C64.8922 16.9622 64.4662 16.3094 64.1921 15.5896C63.9181 14.8698 63.8024 14.0998 63.8528 13.3317V13.3317Z" fill="#291E30"/>
<path d="M76.4791 13.3283C76.4248 12.5592 76.5372 11.7875 76.8087 11.0654C77.0801 10.3433 77.5043 9.68783 78.0525 9.14329C78.6006 8.59876 79.26 8.17793 79.9858 7.90932C80.7116 7.64072 81.4869 7.53062 82.2592 7.58649C83.0336 7.52655 83.8119 7.63363 84.541 7.90042C85.2702 8.1672 85.9329 8.58742 86.4841 9.13241C87.0353 9.67741 87.4619 10.3344 87.735 11.0584C88.008 11.7825 88.121 12.5568 88.0662 13.3283C88.1129 14.0954 87.9939 14.8637 87.7172 15.5812C87.4406 16.2987 87.0127 16.9489 86.4624 17.4879C85.9122 18.0269 85.2523 18.4422 84.5272 18.7058C83.8022 18.9695 83.0288 19.0753 82.2592 19.0163C81.4917 19.0713 80.7213 18.9624 79.9996 18.697C79.2778 18.4315 78.6213 18.0156 78.0741 17.477C77.5268 16.9385 77.1014 16.2898 76.8263 15.5743C76.5513 14.8588 76.4329 14.093 76.4791 13.3283ZM82.2592 16.7841C83.9878 16.7841 84.9601 15.5201 84.9601 13.3283C84.9601 11.1364 83.9608 9.8321 82.2592 9.8321C80.5576 9.8321 79.5582 11.0961 79.5582 13.3283C79.5582 15.5604 80.517 16.7841 82.2592 16.7841Z" fill="#291E30"/>
<path d="M90.0246 18.6397V11.0826C89.9597 10.6254 90.0022 10.1596 90.1487 9.72155C90.2953 9.28355 90.5418 8.88534 90.869 8.55825C91.1962 8.23115 91.5951 7.98408 92.0344 7.83644C92.4737 7.68881 92.9415 7.64464 93.4008 7.70741H96.7635C96.7965 7.70297 96.83 7.70617 96.8616 7.71676C96.8931 7.72736 96.9217 7.74506 96.9452 7.76848C96.9688 7.79191 96.9865 7.82043 96.9972 7.85182C97.0078 7.88321 97.011 7.91662 97.0066 7.94945V9.91269C97.0086 9.94498 97.0036 9.97733 96.9921 10.0076C96.9806 10.0378 96.9627 10.0653 96.9398 10.0882C96.9168 10.1111 96.8892 10.1288 96.8588 10.1403C96.8284 10.1518 96.7959 10.1567 96.7635 10.1547H93.0092V18.6397C93.0092 18.801 92.9281 18.8817 92.7931 18.8817H90.2677C90.2347 18.8861 90.2012 18.8829 90.1696 18.8724C90.1381 18.8618 90.1095 18.8441 90.0859 18.8206C90.0624 18.7972 90.0446 18.7687 90.034 18.7373C90.0234 18.7059 90.0201 18.6725 90.0246 18.6397Z" fill="#291E30"/>
<path d="M98.0737 13.3304C98.0184 12.5565 98.132 11.7798 98.4066 11.0536C98.6812 10.3275 99.1103 9.66909 99.6645 9.12363C100.219 8.57818 100.885 8.15857 101.617 7.89362C102.35 7.62866 103.131 7.52463 103.908 7.58866C107.284 7.58866 109.31 9.74014 109.31 13.2901V13.8952C109.31 13.9594 109.284 14.021 109.238 14.0664C109.193 14.1118 109.131 14.1373 109.067 14.1373H101.153C101.138 14.5023 101.202 14.8663 101.338 15.2054C101.475 15.5444 101.682 15.8509 101.946 16.1048C102.21 16.3586 102.525 16.5541 102.87 16.6785C103.215 16.8029 103.582 16.8534 103.948 16.8266C104.438 16.8948 104.936 16.7999 105.366 16.5567C105.796 16.3135 106.133 15.9357 106.325 15.4819C106.328 15.4518 106.338 15.4227 106.352 15.3962C106.367 15.3697 106.387 15.3464 106.411 15.3276C106.435 15.3089 106.462 15.295 106.492 15.2869C106.521 15.2787 106.551 15.2765 106.582 15.2802H109.026C109.202 15.2802 109.296 15.2802 109.269 15.455C108.877 17.5796 106.973 18.9915 103.867 18.9915C103.101 19.0482 102.332 18.9414 101.61 18.6785C100.889 18.4155 100.232 18.0023 99.6837 17.4665C99.1354 16.9308 98.7082 16.2847 98.4305 15.5715C98.1529 14.8582 98.0312 14.0942 98.0737 13.3304V13.3304ZM106.406 12.3488C106.429 12.0143 106.381 11.6787 106.265 11.3638C106.15 11.0489 105.969 10.7617 105.735 10.5208C105.5 10.2799 105.218 10.0907 104.905 9.96553C104.593 9.84031 104.258 9.78185 103.921 9.79393C103.573 9.77369 103.224 9.82488 102.896 9.94436C102.568 10.0638 102.268 10.249 102.015 10.4885C101.761 10.728 101.56 11.0167 101.424 11.3366C101.287 11.6566 101.218 12.0011 101.22 12.3488H106.406Z" fill="#291E30"/>
</g>
<defs>
<clipPath id="clip0_15558_62209">
<rect width="110" height="22" fill="white"/>
</clipPath>
</defs>
</svg>